<?xml version="1.0" encoding="utf-8"?>
<!-- Generator: Adobe Illustrator 18.1.1, SVG Export Plug-In . SVG Version: 6.00 Build 0)  -->
<svg version="1.1" id="Calque_1" xmlns="http://www.w3.org/2000/svg" xmlns:xlink="http://www.w3.org/1999/xlink" x="0px" y="0px"
	 viewBox="0 0 198.4 36.8" enable-background="new 0 0 198.4 36.8" xml:space="preserve">
<g>
	<circle fill="#163558" cx="23.3" cy="28.7" r="3"/>
	<circle fill="#163558" cx="40.4" cy="21" r="3"/>
	<circle fill="#163558" cx="22.7" cy="18.4" r="3"/>
	<circle fill="#E51431" cx="31.4" cy="13.3" r="3"/>
	<circle fill="#E51431" cx="19" cy="8.1" r="3"/>
	<circle fill="#163558" cx="29" cy="5.6" r="3"/>
	<circle fill="#E51431" cx="34.3" cy="33.8" r="3"/>
	<circle fill="#E51431" cx="40.8" cy="10.7" r="3"/>
	<circle fill="#E51431" cx="14.7" cy="24.4" r="3"/>
	<circle fill="#E51431" cx="3" cy="24.4" r="3"/>
	<circle fill="#163558" cx="11" cy="15.8" r="3"/>
	<circle fill="#E51431" cx="10.9" cy="3" r="3"/>
	<circle fill="#E51431" cx="31.6" cy="23.6" r="3"/>
	<circle fill="#163558" cx="9.3" cy="32.9" r="3"/>
	<circle fill="#E51431" cx="95.4" cy="5" r="3.8"/>
	<g>
		<g>
			<g>
				<path fill="#163558" d="M85.2,16.6c0,2.6-1.3,4.4-3.8,5.6c-2,0.9-2.1,1.3-4.8,1.3h-8l14.8,7.4c0.9,0.4,1.3,1,1.3,1.8
					c0,1.2-1,1.8-2.9,1.8c-0.8,0-1.4-0.1-1.8-0.2L59.2,24.1v8.4c0,1.2-0.6,1.8-1.7,1.8c-1.2,0-1.9-0.1-2.1-0.2
					c-0.7-0.2-1.1-0.8-1.1-1.7V7.7c0-1.2,0.6-1.8,1.7-1.8h19.6c3,0,3.3,0.4,5.3,1.3c2.8,1.2,4.2,3.2,4.2,5.9V16.6z M80.3,16.6V13
					c0-1.9-0.1-2.8-4.6-2.8H59.2v9.1h17.3C80.5,19.3,80.3,18.4,80.3,16.6z"/>
			</g>
			<g>
				<path fill="#163558" d="M97.7,33.8c0,0.9-0.6,1.4-1.7,1.4c-0.5,0-0.9,0-1.3,0c-0.3,0-0.6,0-0.8-0.1c-0.7-0.2-1-0.6-1-1.3v-20
					c0-0.7,0.3-1.1,1-1.3c0.2,0,0.4,0,0.8-0.1c0.3,0,0.8,0,1.4,0c1.1,0,1.7,0.5,1.7,1.4V33.8z"/>
			</g>
			<g>
				<path fill="#163558" d="M138.4,32.9c0,0.6-0.2,1.2-0.6,1.6c-0.4,0.4-0.9,0.7-1.6,0.7c-0.9,0-1.6-0.4-2.1-1.3l-4-6h-19l-4,6
					c-0.4,0.7-0.9,1-1.4,1c-0.5,0-1-0.2-1.4-0.5c-0.5-0.4-0.8-0.8-0.8-1.3c0-0.2,0-0.3,0.1-0.4l14.3-22.6c0.6-0.9,1.6-1.4,3-1.4
					c1.1,0,1.8,0.3,2.1,0.9c0,0,0.1,0.1,0.1,0.2c0,0.1,0.1,0.2,0.2,0.3l15.1,22.1C138.4,32.4,138.4,32.6,138.4,32.9z M127.5,24.1
					l-6.8-10.4l-6.9,10.4H127.5z"/>
			</g>
			<g>
				<path fill="#163558" d="M165.4,11.7c0,1.1-0.5,1.7-1.6,1.7h-11.8v20.2c0,1.1-0.5,1.7-1.6,1.7c-1.1,0-1.8,0-2-0.1
					c-0.7-0.2-1-0.7-1-1.5V13.4h-11.8c-1.1,0-1.7-0.6-1.7-1.7c0-0.8,0.1-2,0.3-2.3c0.2-0.4,0.7-0.6,1.4-0.6h28.3
					C164.8,8.8,165.4,10.3,165.4,11.7z"/>
			</g>
			<g>
				<g>
					<path fill="#163558" d="M196.6,31.2h-16.5c-4,0-6-0.9-6-2.8v-4.3h22.5c1.1,0,1.7-0.6,1.7-1.9v0v-1.1v-2.7v-2.9v-0.6v-0.2
						l-0.1-0.3l-0.1-0.3l-0.1-0.3l-0.1-0.2l-0.1-0.3l-0.1-0.3l-0.2-0.3l-0.2-0.3l-0.2-0.3l-0.3-0.3l-0.4-0.4l-0.3-0.3l-0.3-0.3
						l-0.5-0.3l-0.4-0.2l-1-0.5l-1.1-0.4l-0.7-0.2l-1.3-0.2H190H189h-0.5h-0.3h-0.7h-0.6h-0.7h-0.7h-0.6h-0.5h0l-4.1-0.1
						c-4.6,0-7.8,1.1-9.6,3.3c-0.8,1-1.2,2.2-1.2,3.4v13.1c0,2.3,1.2,4.1,3.7,5.2c2,0.9,4.3,1.3,6.7,1.3h16.7c1.1,0,1.6-0.8,1.6-2.3
						C198.3,31.8,197.7,31.2,196.6,31.2z M185.8,12.7h0.5l0.3,0h0.4h0.3h0.4h0.4h0.3h0.3h0.4l0.5,0.1l0.5,0.1l0.3,0.1l0.4,0.1
						l0.3,0.1l0.4,0.1l0.5,0.2l0.4,0.2l0.3,0.2l0.3,0.2l0.2,0.2l0.2,0.2l0.1,0.2l0.1,0.2l0.1,0.2l0,0.4l0,0.5l0,0.2v1.1l0,1.5v1.6
						h0.2h-19.8v-4.6c0-1.9,2.6-2.9,7.7-2.9c0.2,0,0.4,0,0.6,0c0.3,0,0.6,0,0.9,0c0,0,0.1,0,0.3,0h0.2h0.4"/>
				</g>
			</g>
		</g>
	</g>
</g>
</svg>
